<?xml version="1.0" encoding="UTF-8"?>
<svg id="LOGO" xmlns="http://www.w3.org/2000/svg" xmlns:xlink="http://www.w3.org/1999/xlink" viewBox="0 0 1361.3 1329.18">
  <defs>
    <style>
      .cls-1 {
        fill: #959596;
      }

      .cls-2 {
        fill: #868686;
      }

      .cls-3 {
        fill: #a5a5a5;
      }

      .cls-4 {
        fill: url(#linear-gradient);
      }

      .cls-5 {
        fill: #717172;
      }

      .cls-6 {
        fill: #acacac;
      }

      .cls-7 {
        fill: #cbcbcb;
      }

      .cls-8 {
        fill: #a4a4a4;
      }

      .cls-9 {
        fill: #7e7e7f;
      }

      .cls-10 {
        fill: #7b7b7b;
      }
    </style>
    <linearGradient id="linear-gradient" x1="645.62" y1="-57.61" x2="1025.97" y2="1308.83" gradientUnits="userSpaceOnUse">
      <stop offset="0" stop-color="#bbbcbc"/>
      <stop offset="1" stop-color="#8a8a8a"/>
    </linearGradient>
  </defs>
  <path class="cls-4" d="M751.47,1329.18h505.32c22.88,0,44.22-7.42,62.16-20.72,15.77-11.75,28.14-28.14,35.56-47.93h.31c6.49-17.94,8.04-37.11,4.95-55.36-3.4-18.86-12.06-37.11-25.67-52.26l-286.06-319.46h131.12c22.27,0,42.99-7.11,60.61-19.48,15.46-11.44,27.83-26.91,35.87-45.77,7.11-17.63,9.28-35.87,7.11-53.81-2.47-18.25-9.28-35.25-20.1-50.1L823.83,72.37c-17.32-23.19-38.35-41.13-62.78-53.19-25.05-12.68-51.95-19.17-80.41-19.17s-55.36,6.49-80.41,19.17c-15.77,8.04-30.31,18.25-43.3,30.93l123.7,146.9,304.92,411c4.95,7.11,5.88,15.77,1.86,23.19-4.02,7.73-11.13,12.37-19.79,12.37h-107.62c-22.88,0-44.22,7.42-62.16,20.72-16.08,11.75-28.45,28.45-35.87,48.24-6.49,17.94-8.35,37.11-4.95,55.05,3.4,18.86,12.06,37.11,25.67,52.26l252.66,282.66c5.88,6.49,7.42,15.46,3.71,23.81-3.71,8.04-11.44,13.3-20.41,13.3h-410.38v189.57h143.18Z"/>
  <path class="cls-8" d="M556.94,50.1c-6.8,6.8-13.3,14.23-19.17,22.27L98.94,664.28c-11.13,14.84-17.94,31.85-20.1,50.1-2.47,17.94,0,36.18,7.11,53.81,7.73,18.86,20.1,34.64,35.56,45.77,17.63,12.37,38.35,19.48,60.61,19.48h131.12L27.19,1152.9c-13.61,15.15-22.27,33.4-25.67,52.26-3.09,18.25-1.55,37.42,5.26,55.36h0c7.42,19.79,19.79,36.18,35.56,47.93,17.94,13.3,39.28,20.72,62.16,20.72h576.14V197l-123.7-146.9Z"/>
  <path class="cls-2" d="M30.59,1298.25c3.71,3.71,7.73,7.11,11.75,10.21,17.94,13.3,39.28,20.72,62.16,20.72h324.72l-189.26-212.15-209.37,181.22Z"/>
  <path class="cls-2" d="M313.25,833.44l-73.29,283.59,440.69,22.58s-336.47-291.32-367.39-306.16h0Z"/>
  <path class="cls-5" d="M429.22,1329.18h251.42v-189.57l-440.69-22.58,189.26,212.15Z"/>
  <path class="cls-10" d="M680.65,1139.6v-307.4l-367.39,1.24c30.93,14.84,367.39,306.16,367.39,306.16h0Z"/>
  <polygon class="cls-1" points="313.25 833.44 680.65 832.2 479.94 442.54 313.25 833.44"/>
  <path class="cls-6" d="M268.41,435.74l-169.47,228.54c-11.13,14.84-17.94,31.85-20.1,50.1-2.47,17.94,0,36.18,7.11,53.81,7.73,18.86,20.1,34.64,35.56,45.77,17.63,12.37,38.35,19.48,60.61,19.48h131.12l166.69-390.9-211.53-6.8Z"/>
  <polygon class="cls-9" points="680.65 832.2 680.65 197 479.94 442.54 680.65 832.2"/>
  <path class="cls-7" d="M556.94,50.1c-6.8,6.8-13.3,14.23-19.17,22.27l-269.36,363.37,211.53,6.8,77-392.44Z"/>
  <polygon class="cls-3" points="680.65 197 556.94 50.1 479.94 442.54 680.65 197"/>
</svg>